<?xml version="1.0" encoding="UTF-8" standalone="no"?><!DOCTYPE svg PUBLIC "-//W3C//DTD SVG 1.1//EN" "http://www.w3.org/Graphics/SVG/1.1/DTD/svg11.dtd"><svg width="100%" height="100%" viewBox="0 0 489 489" version="1.1" xmlns="http://www.w3.org/2000/svg" xmlns:xlink="http://www.w3.org/1999/xlink" xml:space="preserve" xmlns:serif="http://www.serif.com/" style="fill-rule:evenodd;clip-rule:evenodd;stroke-linejoin:round;stroke-miterlimit:2;"><path d="M140.908,56.304c-47.304,0 -85.787,38.471 -85.787,85.759l-0,206.266c-0,47.283 38.483,85.754 85.787,85.754l206.225,0c47.3,0 85.784,-38.471 85.784,-85.754l-0,-206.266c-0,-47.288 -38.484,-85.759 -85.784,-85.759l-206.225,0Zm206.225,388.979l-206.225,0c-53.483,0 -96.991,-43.496 -96.991,-96.954l-0,-206.266c-0,-53.463 43.508,-96.959 96.991,-96.959l206.225,0c53.475,0 96.975,43.496 96.975,96.959l0,206.266c0,53.458 -43.5,96.954 -96.975,96.954Zm-203.904,-434.083c-72.796,-0 -132.025,59.229 -132.025,132.029l0,201.563c0,72.795 59.229,132.02 132.025,132.02l201.579,0c72.792,0 132.009,-59.225 132.009,-132.02l-0,-201.563c-0,-72.8 -59.217,-132.029 -132.009,-132.029l-201.579,-0Zm201.579,476.812l-201.579,0c-78.975,0 -143.229,-64.249 -143.229,-143.22l-0,-201.563c-0,-78.975 64.254,-143.229 143.229,-143.229l201.579,0c78.963,0 143.213,64.254 143.213,143.229l-0,201.563c-0,78.971 -64.25,143.22 -143.213,143.22Z" style="fill:url(#_Linear1);"/><path d="M244.017,170.604c-41.129,0 -74.584,33.459 -74.584,74.588c0,41.137 33.455,74.604 74.584,74.604c41.137,-0 74.612,-33.467 74.612,-74.604c0,-41.129 -33.475,-74.588 -74.612,-74.588Zm-0,160.392c-47.304,-0 -85.784,-38.492 -85.784,-85.804c0,-47.305 38.48,-85.788 85.784,-85.788c47.316,0 85.808,38.483 85.808,85.788c-0,47.312 -38.492,85.804 -85.808,85.804Zm-0,-203.896c-65.134,-0 -118.125,52.975 -118.125,118.092c-0,65.133 52.991,118.125 118.125,118.125c65.137,-0 118.133,-52.992 118.133,-118.125c0,-65.117 -52.996,-118.092 -118.133,-118.092Zm-0,247.417c-71.309,-0 -129.321,-58.017 -129.321,-129.325c-0,-71.292 58.012,-129.292 129.321,-129.292c71.312,-0 129.321,58 129.321,129.292c-0,71.308 -58.009,129.325 -129.321,129.325Z" style="fill:url(#_Linear2);"/><path d="M371.883,93.558c-12.825,0 -23.25,10.413 -23.25,23.213c0,12.8 10.425,23.216 23.25,23.216c12.784,0 23.184,-10.416 23.184,-23.216c-0,-12.8 -10.4,-23.213 -23.184,-23.213Zm0,57.63c-19,-0 -34.454,-15.442 -34.454,-34.417c0,-18.975 15.454,-34.413 34.454,-34.413c18.963,0 34.384,15.438 34.384,34.413c-0,18.975 -15.421,34.417 -34.384,34.417Z" style="fill:url(#_Linear3);"/><defs><linearGradient id="_Linear1" x1="0" y1="0" x2="1" y2="0" gradientUnits="userSpaceOnUse" gradientTransform="matrix(-425.554,414.358,-414.358,-425.554,441.946,51.2825)"><stop offset="0" style="stop-color:#4844a1;stop-opacity:1"/><stop offset="0.3" style="stop-color:#a744a1;stop-opacity:1"/><stop offset="0.4" style="stop-color:#b03e8e;stop-opacity:1"/><stop offset="0.6" style="stop-color:#d6243f;stop-opacity:1"/><stop offset="0.9" style="stop-color:#f9ad26;stop-opacity:1"/><stop offset="1" style="stop-color:#f9dd26;stop-opacity:1"/></linearGradient><linearGradient id="_Linear2" x1="0" y1="0" x2="1" y2="0" gradientUnits="userSpaceOnUse" gradientTransform="matrix(-425.55,414.352,-414.352,-425.55,442.542,51.9013)"><stop offset="0" style="stop-color:#4844a1;stop-opacity:1"/><stop offset="0.3" style="stop-color:#a744a1;stop-opacity:1"/><stop offset="0.4" style="stop-color:#b03e8e;stop-opacity:1"/><stop offset="0.6" style="stop-color:#d6243f;stop-opacity:1"/><stop offset="0.9" style="stop-color:#f9ad26;stop-opacity:1"/><stop offset="1" style="stop-color:#f9dd26;stop-opacity:1"/></linearGradient><linearGradient id="_Linear3" x1="0" y1="0" x2="1" y2="0" gradientUnits="userSpaceOnUse" gradientTransform="matrix(-425.563,414.365,-414.365,-425.563,440.571,49.8666)"><stop offset="0" style="stop-color:#4844a1;stop-opacity:1"/><stop offset="0.3" style="stop-color:#a744a1;stop-opacity:1"/><stop offset="0.4" style="stop-color:#b03e8e;stop-opacity:1"/><stop offset="0.6" style="stop-color:#d6243f;stop-opacity:1"/><stop offset="0.9" style="stop-color:#f9ad26;stop-opacity:1"/><stop offset="1" style="stop-color:#f9dd26;stop-opacity:1"/></linearGradient></defs></svg>